<svg xmlns="http://www.w3.org/2000/svg"  viewBox="0 0 48 48" width="48px" height="48px"><path fill="#73a1b2" d="M6.063,15.313c1.932-1.4,3.963-2.122,6.297-1.625c2.23,0.475,4.52,1.349,6.658,2.14 s4.488,1.328,6.689,0.733c2.201-0.595,4.028-2.628,3.859-4.902c-0.06-0.804-0.252-1.564-0.617-2.283 c-0.636-1.254-1.544-2.105-2.865-2.587c-1.37-0.5-2.971-0.44-4.062,0.529s-1.7,2.016-1.89,3.462 c-0.07,0.533-0.117,1.134-0.525,1.484c-0.573,0.491-1.543,0.115-1.887-0.557s-0.224-1.485-0.01-2.208 c0.652-2.209,2.06-4.218,4.128-5.235s4.673-0.974,6.599,0.291c1.696,1.114,3.474,3.442,3.877,5.431 c0.655,3.228-1.197,7.07-4.2,8.423c-0.986,0.444-2.026,0.922-3.101,1.035c-1.342,0.141-2.761-0.097-4.083-0.369 c-3.091-0.636-5.51-2.458-8.663-2.589c-1.291-0.054-2.938-0.009-3.997,0.731c-0.573,0.401-1.089,0.91-1.749,1.139 c-0.66,0.229-1.544,0.046-1.795-0.606C4.378,16.849,5.281,15.878,6.063,15.313z"/><path fill="#010101" d="M24.179,19.983c-1.123,0-2.266-0.197-3.352-0.42c-1.353-0.278-2.575-0.774-3.756-1.253 c-1.591-0.646-3.094-1.255-4.826-1.326c-1.122-0.048-2.729-0.031-3.69,0.641c-0.153,0.108-0.303,0.224-0.452,0.34 c-0.426,0.329-0.867,0.671-1.42,0.862c-0.884,0.304-2.061,0.049-2.425-0.898c-0.362-0.943,0.203-2.072,1.511-3.021l0,0 c2.25-1.63,4.441-2.188,6.694-1.709c2.117,0.451,4.243,1.239,6.299,2.001l0.428,0.159c2.606,0.964,4.634,1.192,6.385,0.72 c1.839-0.497,3.648-2.272,3.491-4.382c-0.058-0.774-0.243-1.46-0.564-2.094c-0.594-1.171-1.417-1.916-2.591-2.345 c-1.052-0.384-2.54-0.471-3.559,0.434c-1.042,0.925-1.558,1.868-1.726,3.153l-0.015,0.117c-0.07,0.549-0.156,1.231-0.681,1.681 c-0.346,0.296-0.804,0.405-1.29,0.311c-0.58-0.114-1.104-0.506-1.367-1.021c-0.343-0.672-0.358-1.515-0.044-2.577 c0.744-2.517,2.342-4.537,4.387-5.542c2.292-1.129,5.077-1.004,7.093,0.321c1.925,1.265,3.685,3.736,4.093,5.75 c0.713,3.516-1.299,7.543-4.484,8.979c-1.079,0.486-2.124,0.957-3.255,1.075C24.771,19.97,24.476,19.983,24.179,19.983z M11.555,15.969c0.257,0,0.503,0.007,0.732,0.016c1.905,0.079,3.56,0.75,5.16,1.399c1.14,0.462,2.319,0.939,3.582,1.199 c1.294,0.267,2.666,0.494,3.931,0.361c0.971-0.102,1.941-0.539,2.88-0.962c2.805-1.264,4.598-4.867,3.983-7.898 c-0.355-1.752-1.963-3.998-3.662-5.113c-1.725-1.134-4.12-1.236-6.103-0.261c-1.794,0.883-3.205,2.679-3.869,4.929 c-0.237,0.805-0.245,1.406-0.024,1.839c0.123,0.241,0.393,0.439,0.67,0.495c0.125,0.022,0.306,0.028,0.446-0.09 c0.231-0.198,0.286-0.63,0.339-1.047l0.016-0.121c0.199-1.523,0.833-2.687,2.053-3.771c1.128-1.002,2.879-1.24,4.565-0.625 c1.407,0.514,2.434,1.44,3.14,2.831c0.383,0.755,0.602,1.563,0.67,2.473c0.178,2.392-1.639,4.722-4.227,5.421 c-1.96,0.53-4.183,0.292-6.993-0.747l-0.429-0.159c-2.022-0.749-4.113-1.524-6.159-1.96c-1.991-0.426-3.865,0.065-5.899,1.541 c-0.677,0.49-1.388,1.271-1.165,1.852c0.139,0.36,0.728,0.463,1.165,0.313c0.398-0.138,0.756-0.415,1.135-0.708 c0.162-0.126,0.325-0.251,0.491-0.368C8.974,16.112,10.381,15.969,11.555,15.969z"/><path fill="#73a1b2" d="M6.016,23.142c2.508-1.447,5.72-1.83,8.596-1.495S21.202,23.255,24,24 c3.127,0.832,5.239,2.266,8.469,2.469c2.319,0.145,4.972,0.086,7.024-1.003c1.748-0.928,2.758-2.454,3.179-4.388 c0.403-1.851,0.257-3.936-1.547-4.516c-1.101-0.354-2.363,0.066-3.169,0.894s-1.321,1.698-1.352,2.854 c-0.009,0.345-0.004,0.732-0.244,0.98c-0.495,0.513-1.354-0.115-1.607-0.781c-0.868-2.285,0.833-5.223,3.034-6.286 c1.015-0.49,2.153-0.779,3.272-0.647c2.585,0.305,4.358,3.193,4.408,5.795s-1.305,5.049-3.283,6.741 c-1.56,1.334-3.445,2.287-5.445,2.752c-3.694,0.859-7.567-0.95-11.19-2.068c-3.624-1.118-7.189-2.555-10.957-2.985 c-0.772-0.088-1.563-0.132-2.319,0.047c-1.177,0.278-4.108,1.018-5.168,1.6s-2.001,1.272-3.065,0.698 c-0.319-0.172-0.57-0.51-0.486-0.862C3.797,24.267,4.797,23.845,6.016,23.142z"/><path fill="#010101" d="M34.704,29.59c-2.43,0-4.866-0.828-7.24-1.636c-0.694-0.235-1.383-0.47-2.063-0.68 c-0.87-0.269-1.737-0.556-2.604-0.842c-2.678-0.887-5.447-1.803-8.262-2.124c-0.666-0.075-1.441-0.13-2.148,0.036 c-1.796,0.425-4.194,1.086-5.042,1.552l-0.359,0.201c-0.938,0.532-2.002,1.135-3.184,0.499c-0.568-0.307-0.864-0.877-0.735-1.418 c0.263-1.104,1.174-1.613,2.229-2.204l0.47-0.266c0-0.001,0-0.001,0-0.001c2.379-1.371,5.624-1.937,8.903-1.558 c2.133,0.248,4.724,1.004,7.01,1.671c0.86,0.251,1.689,0.493,2.449,0.695c1.195,0.318,2.237,0.72,3.245,1.107 c1.636,0.629,3.181,1.224,5.126,1.346c1.91,0.121,4.689,0.152,6.759-0.945c1.532-0.813,2.517-2.177,2.925-4.053 c0.216-0.996,0.531-3.373-1.212-3.934c-0.87-0.279-1.939,0.027-2.658,0.767c-0.824,0.847-1.186,1.601-1.209,2.519 c-0.011,0.432-0.023,0.941-0.385,1.315c-0.274,0.284-0.645,0.397-1.045,0.314c-0.571-0.117-1.155-0.649-1.389-1.266 c-0.979-2.576,0.926-5.775,3.284-6.914c1.208-0.585,2.431-0.825,3.547-0.693c2.927,0.346,4.796,3.529,4.85,6.281 c0.05,2.61-1.211,5.21-3.458,7.131c-1.623,1.388-3.579,2.376-5.657,2.859C36.138,29.518,35.421,29.589,34.704,29.59z M13.437,23.235c0.424,0,0.834,0.036,1.212,0.079c2.917,0.334,5.736,1.267,8.462,2.168c0.861,0.285,1.722,0.57,2.585,0.837 c0.688,0.212,1.386,0.449,2.09,0.688c2.941,1,5.985,2.034,8.839,1.369c1.922-0.446,3.732-1.361,5.233-2.645 c2.02-1.727,3.152-4.042,3.108-6.352c-0.046-2.343-1.65-5.034-3.967-5.309c-0.921-0.105-1.957,0.101-2.995,0.602 c-1.928,0.932-3.564,3.606-2.785,5.658c0.111,0.293,0.417,0.593,0.655,0.642c0.08,0.017,0.102-0.006,0.125-0.029 c0.091-0.095,0.097-0.355,0.103-0.586c0.032-1.237,0.493-2.222,1.495-3.251c0.977-1.004,2.455-1.415,3.681-1.021 c1.776,0.57,2.462,2.428,1.882,5.098c-0.474,2.177-1.629,3.766-3.433,4.723c-2.293,1.216-5.259,1.188-7.29,1.061 c-2.099-0.131-3.713-0.753-5.423-1.411c-0.983-0.378-2-0.77-3.143-1.073c-0.768-0.204-1.604-0.448-2.472-0.702 c-2.248-0.655-4.796-1.399-6.845-1.637c-3.071-0.357-6.091,0.164-8.288,1.431v-0.001v0.001l0,0l-0.482,0.272 c-1.011,0.565-1.591,0.917-1.745,1.563c-0.02,0.085,0.088,0.226,0.237,0.306c0.666,0.36,1.247,0.063,2.216-0.487l0.372-0.209 c1.177-0.646,4.35-1.425,5.294-1.647C12.584,23.271,13.017,23.235,13.437,23.235z"/><path fill="#73a1b2" d="M7.072,30.549c3.893-1.947,6.904-2.995,10.681-0.831c1.32,0.756,2.758,2.127,4.112,2.821 c1.693,0.867,3.657,1.197,5.541,0.931c1.871-0.265,4.781-1.077,6.656-0.844c2.894,0.361,5.001,3.992,4.109,6.769 c-0.493,1.534-1.704,2.742-3.047,3.631c-1.198,0.793-2.565,1.389-3.999,1.468c-1.435,0.079-3.105-0.923-4.047-2.008 c-0.329-0.379-0.594-0.886-0.455-1.368c0.139-0.482,1.027-0.897,1.86,0.061c0.905,1.041,2.186,1.605,3.475,1.114 c1.311-0.499,2.254-1.224,2.701-2.554c0.447-1.33,0.019-2.979-1.171-3.723c-0.938-0.587-2.145-0.543-3.219-0.275 c-1.074,0.268-5.958,1.781-9.188-0.41c-0.859-0.583-2.188-1.993-3.019-2.615c-2.391-1.792-5.421-1.409-8.156-0.206 c-0.683,0.3-1.332,0.693-2.055,0.877C7.13,33.57,6.135,33.549,5.75,32.984C5.33,32.368,5.76,31.205,7.072,30.549z"/><path fill="#010101" d="M30.962,44.997c-1.623,0-3.33-1.112-4.261-2.185c-0.526-0.606-0.724-1.258-0.558-1.835 c0.118-0.41,0.495-0.742,0.959-0.845c0.606-0.134,1.246,0.127,1.758,0.717c0.41,0.472,1.518,1.511,2.92,0.975 c1.326-0.505,2.045-1.178,2.405-2.246c0.395-1.176-0.027-2.555-0.962-3.14c-0.869-0.543-2.019-0.416-2.833-0.214l-0.264,0.068 c-1.515,0.402-6.126,1.62-9.325-0.55c-0.5-0.34-1.125-0.919-1.73-1.479c-0.49-0.454-0.952-0.883-1.308-1.149 c-2.443-1.832-5.512-1.092-7.655-0.148c-0.203,0.089-0.402,0.187-0.602,0.284c-0.481,0.236-0.979,0.479-1.531,0.619 c-0.875,0.224-2.092,0.2-2.639-0.604c-0.24-0.353-0.305-0.81-0.181-1.286c0.196-0.754,0.813-1.438,1.692-1.878l0,0 c3.675-1.837,7.051-3.169,11.153-0.817c0.636,0.364,1.296,0.863,1.935,1.347c0.721,0.545,1.466,1.108,2.157,1.462 c1.601,0.82,3.465,1.133,5.243,0.881c0.536-0.076,1.157-0.197,1.815-0.325c1.67-0.325,3.565-0.697,4.972-0.52 c1.457,0.182,2.82,1.111,3.74,2.553c0.978,1.531,1.271,3.35,0.784,4.865c-0.466,1.451-1.589,2.798-3.247,3.895 c-1.439,0.952-2.869,1.474-4.248,1.55C31.089,44.995,31.025,44.997,30.962,44.997z M27.416,41.099 c-0.033,0-0.066,0.004-0.098,0.011c-0.141,0.031-0.206,0.117-0.214,0.145c-0.067,0.234,0.064,0.571,0.352,0.902 c0.839,0.967,2.344,1.893,3.642,1.837c1.2-0.066,2.462-0.532,3.751-1.386c1.022-0.677,2.347-1.81,2.847-3.367 c0.397-1.234,0.144-2.737-0.675-4.021c-0.759-1.189-1.86-1.954-3.021-2.099c-1.251-0.156-3.061,0.197-4.657,0.509 c-0.677,0.132-1.316,0.256-1.867,0.334c-1.983,0.279-4.056-0.068-5.839-0.98c-0.768-0.394-1.549-0.984-2.304-1.556 c-0.642-0.485-1.248-0.943-1.829-1.276c-3.376-1.934-5.982-1.268-10.209,0.845l0,0c-0.612,0.306-1.049,0.768-1.171,1.235 c-0.05,0.193-0.036,0.36,0.039,0.472c0.195,0.286,0.881,0.373,1.566,0.198c0.452-0.115,0.882-0.325,1.338-0.548 c0.211-0.104,0.424-0.207,0.639-0.303c3.425-1.506,6.419-1.414,8.658,0.264c0.398,0.298,0.879,0.744,1.389,1.217 c0.577,0.534,1.173,1.087,1.611,1.384c2.822,1.915,7.102,0.783,8.509,0.411l0.277-0.072c1.437-0.358,2.684-0.24,3.605,0.337 c1.331,0.833,1.924,2.684,1.379,4.306c-0.453,1.346-1.405,2.256-2.997,2.862c-1.385,0.528-2.891,0.059-4.031-1.253 C27.876,41.242,27.631,41.099,27.416,41.099z"/></svg>